<!-- icon666.com - MILLIONS vector ICONS FREE --><svg id="sign" enable-background="new 0 0 300 300" viewBox="0 0 300 300" xmlns="http://www.w3.org/2000/svg"><g><circle cx="116" cy="130.582" fill="#eaeaea" r="80"></circle><g fill="#4c241d"><path d="m170.814 46.077c0 2.362-1.914 4.277-4.276 4.277s-4.276-1.915-4.276-4.277 1.914-4.276 4.276-4.276c2.362-.001 4.276 1.914 4.276 4.276z"></path><path d="m238.814 102.077c0 2.362-1.914 4.277-4.276 4.277s-4.276-1.915-4.276-4.277 1.914-4.276 4.276-4.276c2.362-.001 4.276 1.914 4.276 4.276z"></path><path d="m48.621 112.803c-1.023 0-2.047-.391-2.828-1.172-1.562-1.562-1.562-4.094 0-5.656l11.793-11.793c1.562-1.562 4.094-1.562 5.656 0s1.562 4.094 0 5.656l-11.793 11.793c-.781.781-1.804 1.172-2.828 1.172z"></path><path d="m60.414 112.803c-1.023 0-2.047-.391-2.828-1.172l-11.793-11.793c-1.562-1.562-1.562-4.094 0-5.656s4.094-1.562 5.656 0l11.793 11.793c1.562 1.562 1.562 4.094 0 5.656-.781.781-1.804 1.172-2.828 1.172z"></path></g><g><path d="m112 90.582h16v44h-16z" fill="#6b4f5b"></path><path d="m128 138.582h-16c-2.209 0-4-1.791-4-4v-44c0-2.209 1.791-4 4-4h16c2.209 0 4 1.791 4 4v44c0 2.209-1.791 4-4 4zm-12-8h8v-36h-8z" fill="#4c241d"></path></g><g><path d="m192 90.582h16v44h-16z" fill="#6b4f5b"></path><path d="m208 138.582h-16c-2.209 0-4-1.791-4-4v-44c0-2.209 1.791-4 4-4h16c2.209 0 4 1.791 4 4v44c0 2.209-1.791 4-4 4zm-12-8h8v-36h-8z" fill="#4c241d"></path></g><g><path d="m160 126.582c-18.137 12.092-79.389-3.618-79.389-3.618-15.114 15.114.366 25.481 3.389 43.618s-9.435 22-9.435 22 12.458 3.863 9.435 22-18.504 28.504-3.389 43.618c0 0 61.252-15.71 79.389-3.618 18.137-12.092 79.389 3.618 79.389 3.618 15.114-15.114-.366-25.481-3.389-43.618s9.435-22 9.435-22-12.458-3.863-9.435-22 18.504-28.504 3.389-43.618c0 0-61.252 15.71-79.389 3.618z" fill="#bf7e68"></path><path d="m239.389 258.199c-.332 0-.664-.041-.994-.125-16.561-4.246-62.523-13.27-76.176-4.164-1.344.895-3.094.895-4.438 0-13.654-9.104-59.619-.082-76.176 4.164-1.365.35-2.82-.045-3.822-1.047-12.119-12.117-7.434-22.387-2.902-32.318 2.1-4.6 4.268-9.355 5.174-14.785 2.336-14.012-5.793-17.219-6.727-17.537-1.639-.561-2.76-2.121-2.734-3.854.025-1.73 1.133-3.26 2.785-3.771.883-.303 9.012-3.51 6.676-17.521-.906-5.43-3.074-10.186-5.174-14.785-4.531-9.932-9.217-20.201 2.902-32.318 1-1.002 2.449-1.396 3.822-1.047 16.557 4.246 62.52 13.268 76.176 4.164 1.344-.895 3.094-.895 4.438 0 13.654 9.096 59.617.08 76.176-4.164 1.377-.342 2.822.047 3.822 1.047 12.119 12.117 7.434 22.387 2.902 32.318-2.1 4.6-4.268 9.355-5.174 14.785-2.336 14.012 5.793 17.219 6.727 17.537 1.639.561 2.76 2.121 2.734 3.854-.025 1.73-1.133 3.26-2.785 3.771-.883.303-9.012 3.51-6.676 17.521.906 5.43 3.074 10.186 5.174 14.785 4.531 9.932 9.217 20.201-2.902 32.318-.76.76-1.781 1.172-2.828 1.172zm-157.422-69.617c4.248 4.051 7.877 11.273 5.979 22.658-1.078 6.473-3.58 11.953-5.785 16.789-4.021 8.812-6.555 14.365-.23 21.719 12.102-2.947 58.805-13.375 78.07-3.773 19.271-9.604 65.965.82 78.07 3.773 6.324-7.354 3.791-12.906-.23-21.719-2.205-4.836-4.707-10.316-5.785-16.789-1.898-11.385 1.73-18.607 5.979-22.658-4.248-4.051-7.877-11.273-5.979-22.658 1.078-6.473 3.58-11.953 5.785-16.789 4.021-8.812 6.555-14.365.23-21.719-12.104 2.949-58.803 13.377-78.07 3.773-19.268 9.605-65.965-.822-78.07-3.773-6.324 7.354-3.791 12.906.23 21.719 2.205 4.836 4.707 10.316 5.785 16.789 1.898 11.385-1.731 18.608-5.979 22.658z" fill="#4c241d"></path></g><g><path d="m184.5 182.582h-49l.5 48h48z" fill="#ffce56"></path><path d="m184 234.582h-48c-2.193 0-3.977-1.766-4-3.959l-.5-48c-.012-1.066.406-2.096 1.156-2.855.752-.758 1.775-1.186 2.844-1.186h49c1.068 0 2.092.428 2.844 1.186.75.76 1.168 1.789 1.156 2.855l-.5 48c-.023 2.194-1.807 3.959-4 3.959zm-44.041-8h40.082l.418-40h-40.918z" fill="#4c241d"></path></g><path d="m172 222.582c-2.209 0-4-1.791-4-4v-16c0-2.209 1.791-4 4-4s4 1.791 4 4v16c0 2.209-1.791 4-4 4z" fill="#4c241d"></path><path d="m160 222.582c-2.209 0-4-1.791-4-4v-12c0-2.209 1.791-4 4-4s4 1.791 4 4v12c0 2.209-1.791 4-4 4z" fill="#4c241d"></path><path d="m148 222.582c-2.209 0-4-1.791-4-4v-16c0-2.209 1.791-4 4-4s4 1.791 4 4v16c0 2.209-1.791 4-4 4z" fill="#4c241d"></path><g><path d="m130 162.582c1.009 0 1.963.194 2.881.472-.557-1.384-.881-2.888-.881-4.472 0-6.627 5.373-12 12-12s12 5.373 12 12c0 .26-.06.503-.076.759 1.278-.464 2.638-.759 4.076-.759 0-6.627 5.373-12 12-12s12 5.373 12 12c0 .26-.06.503-.076.759 1.278-.464 2.638-.759 4.076-.759 6.627 0 12 5.373 12 12s-5.373 12-12 12c-5.974 0-55.957 0-58 0-5.523 0-10-4.477-10-10s4.477-10 10-10z" fill="#fff"></path><path d="m188 186.582h-58c-7.719 0-14-6.281-14-14 0-7.041 5.225-12.885 12-13.857 0-.047 0-.096 0-.143 0-8.822 7.178-16 16-16 6.016 0 11.268 3.338 14 8.26 2.732-4.922 7.984-8.26 14-8.26 7.445 0 13.719 5.111 15.496 12.01 9.004-.217 16.504 7 16.504 15.99 0 8.823-7.178 16-16 16zm-58-20c-3.309 0-6 2.691-6 6s2.691 6 6 6h58c4.412 0 8-3.588 8-8s-3.588-8-8-8c-.863 0-1.75.17-2.713.518-1.264.463-2.68.252-3.758-.557-1.08-.807-1.68-2.102-1.598-3.447.006-.102.053-.527.066-.629.002-4.297-3.586-7.885-7.998-7.885s-8 3.588-8 8c0 2.209-1.791 4-4 4-.863 0-1.75.17-2.713.518-1.266.463-2.68.252-3.758-.557-1.08-.807-1.68-2.102-1.598-3.447.006-.102.053-.527.066-.629.002-4.297-3.586-7.885-7.998-7.885s-8 3.588-8 8c0 1 .199 2.004.592 2.98.574 1.43.277 3.061-.762 4.195-1.037 1.137-2.645 1.576-4.113 1.123-.67-.202-1.215-.298-1.715-.298z" fill="#4c241d"></path></g><g><path d="m168 174.582v14c0 3.314-2.686 6-6 6-3.314 0-6-2.686-6-6v-14" fill="#fff"></path><path d="m162 198.582c-5.514 0-10-4.486-10-10v-14c0-2.209 1.791-4 4-4s4 1.791 4 4v14c0 1.104.896 2 2 2s2-.896 2-2v-14c0-2.209 1.791-4 4-4s4 1.791 4 4v14c0 5.514-4.486 10-10 10z" fill="#4c241d"></path></g><path d="m188 234.582h-56c-2.209 0-4-1.791-4-4s1.791-4 4-4h56c2.209 0 4 1.791 4 4s-1.791 4-4 4z" fill="#4c241d"></path><g><path d="m60 62.582h200v16h-200" fill="#bf7e68"></path><path d="m260 82.582h-200c-2.209 0-4-1.791-4-4s1.791-4 4-4h196v-8h-196c-2.209 0-4-1.791-4-4s1.791-4 4-4h200c2.209 0 4 1.791 4 4v16c0 2.209-1.791 4-4 4z" fill="#4c241d"></path></g><g><path d="m108 78.582h24v12h-24z" fill="#6b4f5b"></path><path d="m132 94.582h-24c-2.209 0-4-1.791-4-4v-12c0-2.209 1.791-4 4-4h24c2.209 0 4 1.791 4 4v12c0 2.209-1.791 4-4 4zm-20-8h16v-4h-16z" fill="#4c241d"></path></g><g><path d="m188 78.582h24v12h-24z" fill="#6b4f5b"></path><path d="m212 94.582h-24c-2.209 0-4-1.791-4-4v-12c0-2.209 1.791-4 4-4h24c2.209 0 4 1.791 4 4v12c0 2.209-1.791 4-4 4zm-20-8h16v-4h-16z" fill="#4c241d"></path></g></g></svg>